<svg width="202" height="54" viewBox="0 0 202 54" fill="none" xmlns="http://www.w3.org/2000/svg">
<path d="M34.1422 5.85781C30.3647 2.08031 25.3422 0 20 0C14.6578 0 9.63531 2.08031 5.85781 5.85781C2.08031 9.63531 0 14.6578 0 20C0 25.3422 2.08039 30.3646 5.85781 34.1422C9.63523 37.9198 14.6578 40 20 40C25.3422 40 30.3647 37.9197 34.1422 34.1422C37.9197 30.3647 40 25.3422 40 20C40 14.6578 37.9196 9.63539 34.1422 5.85781Z" fill="#33CC95"/>
<g clip-path="url(#clip0)">
<path d="M20.5714 8V33.1429" stroke="white" stroke-width="2" stroke-linecap="round" stroke-linejoin="round"/>
<path d="M26.2857 12.5714H17.7143C16.6534 12.5714 15.636 12.9929 14.8859 13.743C14.1357 14.4931 13.7143 15.5106 13.7143 16.5714C13.7143 17.6323 14.1357 18.6497 14.8859 19.3999C15.636 20.15 16.6534 20.5714 17.7143 20.5714H23.4286C24.4894 20.5714 25.5069 20.9929 26.257 21.743C27.0072 22.4932 27.4286 23.5106 27.4286 24.5714C27.4286 25.6323 27.0072 26.6497 26.257 27.3999C25.5069 28.15 24.4894 28.5714 23.4286 28.5714H13.7143" stroke="white" stroke-width="2" stroke-linecap="round" stroke-linejoin="round"/>
</g>
<path d="M63.4122 13.248V30H60.0522V19.104L55.5642 30H53.0202L48.5082 19.104V30H45.1482V13.248H48.9642L54.2922 25.704L59.6202 13.248H63.4122ZM68.4381 15.12C67.8461 15.12 67.3501 14.936 66.9501 14.568C66.5661 14.184 66.3741 13.712 66.3741 13.152C66.3741 12.592 66.5661 12.128 66.9501 11.76C67.3501 11.376 67.8461 11.184 68.4381 11.184C69.0301 11.184 69.5181 11.376 69.9021 11.76C70.3021 12.128 70.5021 12.592 70.5021 13.152C70.5021 13.712 70.3021 14.184 69.9021 14.568C69.5181 14.936 69.0301 15.12 68.4381 15.12ZM70.0941 16.704V30H66.7341V16.704H70.0941ZM80.7818 16.512C82.3658 16.512 83.6458 17.016 84.6218 18.024C85.5978 19.016 86.0858 20.408 86.0858 22.2V30H82.7258V22.656C82.7258 21.6 82.4618 20.792 81.9338 20.232C81.4058 19.656 80.6858 19.368 79.7738 19.368C78.8458 19.368 78.1098 19.656 77.5658 20.232C77.0378 20.792 76.7738 21.6 76.7738 22.656V30H73.4138V16.704H76.7738V18.36C77.2218 17.784 77.7898 17.336 78.4778 17.016C79.1818 16.68 79.9498 16.512 80.7818 16.512ZM96.769 16.512C97.777 16.512 98.673 16.736 99.457 17.184C100.241 17.616 100.849 18.264 101.281 19.128C101.729 19.976 101.953 21 101.953 22.2V30H98.593V22.656C98.593 21.6 98.329 20.792 97.801 20.232C97.273 19.656 96.553 19.368 95.641 19.368C94.713 19.368 93.977 19.656 93.433 20.232C92.905 20.792 92.641 21.6 92.641 22.656V30H89.281V12.24H92.641V18.36C93.073 17.784 93.649 17.336 94.369 17.016C95.089 16.68 95.889 16.512 96.769 16.512ZM104.284 23.304C104.284 21.96 104.548 20.768 105.076 19.728C105.62 18.688 106.348 17.888 107.26 17.328C108.188 16.768 109.22 16.488 110.356 16.488C111.348 16.488 112.212 16.688 112.948 17.088C113.7 17.488 114.3 17.992 114.748 18.6V16.704H118.132V30H114.748V28.056C114.316 28.68 113.716 29.2 112.948 29.616C112.196 30.016 111.324 30.216 110.332 30.216C109.212 30.216 108.188 29.928 107.26 29.352C106.348 28.776 105.62 27.968 105.076 26.928C104.548 25.872 104.284 24.664 104.284 23.304ZM114.748 23.352C114.748 22.536 114.588 21.84 114.268 21.264C113.948 20.672 113.516 20.224 112.972 19.92C112.428 19.6 111.844 19.44 111.22 19.44C110.596 19.44 110.02 19.592 109.492 19.896C108.964 20.2 108.532 20.648 108.196 21.24C107.876 21.816 107.716 22.504 107.716 23.304C107.716 24.104 107.876 24.808 108.196 25.416C108.532 26.008 108.964 26.464 109.492 26.784C110.036 27.104 110.612 27.264 111.22 27.264C111.844 27.264 112.428 27.112 112.972 26.808C113.516 26.488 113.948 26.04 114.268 25.464C114.588 24.872 114.748 24.168 114.748 23.352ZM138.797 18.288C138.413 17.584 137.885 17.048 137.213 16.68C136.541 16.312 135.757 16.128 134.861 16.128C133.869 16.128 132.989 16.352 132.221 16.8C131.453 17.248 130.853 17.888 130.421 18.72C129.989 19.552 129.773 20.512 129.773 21.6C129.773 22.72 129.989 23.696 130.421 24.528C130.869 25.36 131.485 26 132.269 26.448C133.053 26.896 133.965 27.12 135.005 27.12C136.285 27.12 137.333 26.784 138.149 26.112C138.965 25.424 139.501 24.472 139.757 23.256H133.997V20.688H143.069V23.616C142.845 24.784 142.365 25.864 141.629 26.856C140.893 27.848 139.941 28.648 138.773 29.256C137.621 29.848 136.325 30.144 134.885 30.144C133.269 30.144 131.805 29.784 130.493 29.064C129.197 28.328 128.173 27.312 127.421 26.016C126.685 24.72 126.317 23.248 126.317 21.6C126.317 19.952 126.685 18.48 127.421 17.184C128.173 15.872 129.197 14.856 130.493 14.136C131.805 13.4 133.261 13.032 134.861 13.032C136.749 13.032 138.389 13.496 139.781 14.424C141.173 15.336 142.133 16.624 142.661 18.288H138.797ZM148.914 18.768C149.346 18.064 149.906 17.512 150.594 17.112C151.298 16.712 152.098 16.512 152.994 16.512V20.04H152.106C151.05 20.04 150.25 20.288 149.706 20.784C149.178 21.28 148.914 22.144 148.914 23.376V30H145.554V16.704H148.914V18.768ZM154.394 23.304C154.394 21.96 154.658 20.768 155.186 19.728C155.73 18.688 156.458 17.888 157.37 17.328C158.298 16.768 159.33 16.488 160.466 16.488C161.458 16.488 162.322 16.688 163.058 17.088C163.81 17.488 164.41 17.992 164.858 18.6V16.704H168.242V30H164.858V28.056C164.426 28.68 163.826 29.2 163.058 29.616C162.306 30.016 161.434 30.216 160.442 30.216C159.322 30.216 158.298 29.928 157.37 29.352C156.458 28.776 155.73 27.968 155.186 26.928C154.658 25.872 154.394 24.664 154.394 23.304ZM164.858 23.352C164.858 22.536 164.698 21.84 164.378 21.264C164.058 20.672 163.626 20.224 163.082 19.92C162.538 19.6 161.954 19.44 161.33 19.44C160.706 19.44 160.13 19.592 159.602 19.896C159.074 20.2 158.642 20.648 158.306 21.24C157.986 21.816 157.826 22.504 157.826 23.304C157.826 24.104 157.986 24.808 158.306 25.416C158.642 26.008 159.074 26.464 159.602 26.784C160.146 27.104 160.722 27.264 161.33 27.264C161.954 27.264 162.538 27.112 163.082 26.808C163.626 26.488 164.058 26.04 164.378 25.464C164.698 24.872 164.858 24.168 164.858 23.352ZM178.891 16.512C180.475 16.512 181.755 17.016 182.731 18.024C183.707 19.016 184.195 20.408 184.195 22.2V30H180.835V22.656C180.835 21.6 180.571 20.792 180.043 20.232C179.515 19.656 178.795 19.368 177.883 19.368C176.955 19.368 176.219 19.656 175.675 20.232C175.147 20.792 174.883 21.6 174.883 22.656V30H171.523V16.704H174.883V18.36C175.331 17.784 175.899 17.336 176.587 17.016C177.291 16.68 178.059 16.512 178.891 16.512ZM186.526 23.304C186.526 21.96 186.79 20.768 187.318 19.728C187.862 18.688 188.59 17.888 189.502 17.328C190.43 16.768 191.462 16.488 192.598 16.488C193.59 16.488 194.454 16.688 195.19 17.088C195.942 17.488 196.542 17.992 196.99 18.6V16.704H200.374V30H196.99V28.056C196.558 28.68 195.958 29.2 195.19 29.616C194.438 30.016 193.566 30.216 192.574 30.216C191.454 30.216 190.43 29.928 189.502 29.352C188.59 28.776 187.862 27.968 187.318 26.928C186.79 25.872 186.526 24.664 186.526 23.304ZM196.99 23.352C196.99 22.536 196.83 21.84 196.51 21.264C196.19 20.672 195.758 20.224 195.214 19.92C194.67 19.6 194.086 19.44 193.462 19.44C192.838 19.44 192.262 19.592 191.734 19.896C191.206 20.2 190.774 20.648 190.438 21.24C190.118 21.816 189.958 22.504 189.958 23.304C189.958 24.104 190.118 24.808 190.438 25.416C190.774 26.008 191.206 26.464 191.734 26.784C192.278 27.104 192.854 27.264 193.462 27.264C194.086 27.264 194.67 27.112 195.214 26.808C195.758 26.488 196.19 26.04 196.51 25.464C196.83 24.872 196.99 24.168 196.99 23.352Z" fill="white"/>
<defs>
<clipPath id="clip0">
<rect width="27.4286" height="27.4286" fill="white" transform="translate(6.85715 6.85714)"/>
</clipPath>
</defs>
</svg>
